<svg viewBox="0 0 24 24" xmlns="http://www.w3.org/2000/svg">
  <!-- Верхняя ручка (полностью белая) -->
  <path fill-rule="evenodd" clip-rule="evenodd" 
    d="M7.5 4a2 2 0 0 1 2-2h5a2 2 0 0 1 2 2v1.5H16A2 2 0 0 1 14.063 4H9.937A2 2 0 0 1 8 5.5h-.5V4Z" 
    fill="white"/>
  
  <!-- Основная нижняя часть (белый с прозрачностью 0.6 для выделения объема) -->
  <path opacity="0.6" fill-rule="evenodd" clip-rule="evenodd" 
    d="M22 11H2v9.5h16a4 4 0 0 0 4-4V11Zm-10.5 1.5a2 2 0 0 0-2 2v.5h3a2 2 0 0 0 2-2v-.5h-3Z" 
    fill="white"/>
  
  <!-- Верхняя грань корпуса (полностью белая) -->
  <path d="M2 10.5a4 4 0 0 1 4-4h16V11H2v-.5Z" 
    fill="white"/>
</svg>
