<svg viewBox="0 0 24 24" xmlns="http://www.w3.org/2000/svg">
  <!-- Стрелка и основная линия (полностью белая) -->
  <path 
    d="m24 12-7.5-9-5 6H17v9a3.007 3.007 0 0 1-3 3h2.5a4 4 0 0 0 4-4v-5H24Z" 
    fill="white"
  />
  <!-- Тело кошелька/карточки (белый с прозрачностью 0.8) -->
  <path 
    opacity=".8" 
    fill-rule="evenodd" 
    clip-rule="evenodd" 
    d="M2 7.5V18a3 3 0 0 0 3 3h9a3 3 0 0 0 3-3V9H3.5A1.5 1.5 0 0 1 2 7.5Zm10 7.25c0-.69.56-1.25 1.25-1.25h.5a1.25 1.25 0 1 1 0 2.5h-.5c-.69 0-1.25-.56-1.25-1.25Z" 
    fill="white"
  />
  <!-- Верхняя крышка (белый с прозрачностью 0.35) -->
  <path 
    opacity=".35" 
    d="M2 7.5A1.5 1.5 0 0 1 3.5 6H14l-2.5 3h-8A1.5 1.5 0 0 1 2 7.5Z" 
    fill="white"
  />
</svg>
