<svg viewBox="0 0 24 24" xmlns="http://www.w3.org/2000/svg">
  <path fill="white" fill-rule="evenodd" clip-rule="evenodd" 
    d="M12 .5C5.649.5.5 5.649.5 12S5.649 23.5 12 23.5 23.5 18.351 23.5 12 18.351.5 12 .5Zm1.75 4a2 2 0 0 0-2 2v13a2 2 0 0 0 2-2h1a3 3 0 0 0 3-3v-.285a3 3 0 0 0-2.701-2.985l-1.299-.13V8.5h.5a1 1 0 0 1 1 1v.5h2.5v-.5a3 3 0 0 0-3-3h-1v-2Zm0 8.882V15.5h.5a1 1 0 0 0 1-1v-.142a1 1 0 0 0-.5-.866v.008l-1-.118ZM9.25 6.5h1v2h-.758a.742.742 0 0 0-.742.742c0 .726.525 1.345 1.24 1.465l.26.043v2.22l-1.35-.158a3 3 0 0 1-2.65-2.98V9.5a3 3 0 0 1 3-3Zm1 11v-2h-.5a1 1 0 0 1-1-1V14h-2.5v.5a3 3 0 0 0 3 3h1Z" 
  />
</svg>
