<svg viewBox="0 0 24 24" xmlns="http://www.w3.org/2000/svg">
  <defs>
    <linearGradient id="plus_gradient" x1="5" y1="5" x2="19" y2="19" gradientUnits="userSpaceOnUse">
      <stop stop-color="rgb(80, 147, 248)" stop-opacity=".95"/>
      <stop offset="1" stop-color="rgb(129, 176, 248)" stop-opacity=".65"/>
    </linearGradient>
  </defs>
  <path fill-rule="evenodd" clip-rule="evenodd" 
    d="M12 23c6.075 0 11-4.925 11-11S18.075 1 12 1 1 5.925 1 12s4.925 11 11 11Zm5.514-10.5a1 1 0 0 1-1 1h-3v4h-2a1 1 0 0 1-1-1v-3h-4v-2a1 1 0 0 1 1-1h3v-4h2a1 1 0 0 1 1 1v3h4v2Z" 
    fill="url(#plus_gradient)"/>
</svg>
