<svg viewBox="0 0 24 24" xmlns="http://www.w3.org/2000/svg" fill="none">
  <path d="M2 7v4h20V7H2Z" fill="rgb(255, 255, 255)"/>
  <path opacity=".7" fill-rule="evenodd" clip-rule="evenodd" d="M7.09 2H6v2a3 3 0 0 0 3 3h6a3 3 0 0 0 3-3V2h-3a3 3 0 0 0-3 3 3 3 0 0 0-3-3H7.09Z" fill="rgb(230, 211, 252)"/>
  <path opacity=".8" fill-rule="evenodd" clip-rule="evenodd" d="M10 11H3v11h7V11Zm4 0v8a3 3 0 0 1-3 3h6a4 4 0 0 0 4-4v-7h-7Z" fill="rgb(230, 211, 252)"/>
  <path opacity=".3" d="M14 11h-4v11h1a3 3 0 0 0 3-3v-8Z" fill="rgb(216, 189, 252)"/>
</svg>